<svg xmlns="http://www.w3.org/2000/svg" version="1.0" width="500.000000pt" height="500.000000pt" viewBox="0 0 500.000000 500.000000" preserveAspectRatio="xMidYMid meet">

<g transform="translate(0.000000,500.000000) scale(0.100000,-0.100000)" fill="#fd0001" stroke="none">
<path d="M2315 4994 c-16 -2 -73 -9 -125 -15 -323 -36 -709 -171 -1008 -351 -120 -72 -298 -209 -410 -313 -259 -243 -496 -605 -620 -950 -48 -133 -106 -362 -127 -505 -37 -253 -30 -565 20 -836 176 -952 909 -1723 1857 -1953 234 -57 319 -66 603 -66 286 1 389 13 628 74 522 135 1034 467 1329 862 288 384 452 780 520 1254 19 134 16 502 -5 646 -68 459 -255 885 -545 1245 -381 473 -949 794 -1572 889 -100 15 -479 29 -545 19z m825 -401 c196 -31 431 -125 602 -240 232 -155 398 -343 508 -577 58 -122 86 -220 99 -343 28 -266 -58 -512 -244 -699 -147 -149 -316 -233 -540 -269 -120 -20 -347 -19 -466 1 -315 54 -627 227 -874 485 -159 166 -271 380 -316 604 -17 87 -15 276 5 359 38 160 104 283 214 398 238 249 596 349 1012 281z" fill="#fd0001"/>
<path d="M3072 4280 c-62 -13 -141 -59 -176 -103 -29 -36 -31 -44 -31 -121 0 -77 3 -87 34 -137 l33 -54 -28 -20 c-132 -95 -167 -138 -185 -222 -15 -76 0 -179 41 -270 42 -93 166 -214 270 -265 113 -55 187 -71 305 -66 128 5 200 35 275 114 68 72 92 129 98 230 5 98 -11 154 -69 244 -21 33 -39 65 -39 70 0 5 13 31 29 57 61 102 63 165 10 272 -86 171 -378 311 -567 271z m263 -189 c63 -29 88 -62 93 -124 4 -46 1 -57 -20 -82 -20 -23 -35 -29 -80 -33 -70 -5 -125 22 -157 78 -37 66 -20 133 41 163 43 21 74 21 123 -2z m-19 -476 c25 -14 57 -45 72 -67 23 -35 27 -52 27 -109 0 -57 -4 -71 -24 -93 -103 -109 -323 3 -325 165 -2 121 129 175 250 104z" fill="#fd0001"/>
</g>
</svg>